<?xml version="1.0" encoding="utf-8"?>
<!-- Generator: Adobe Illustrator 19.2.1, SVG Export Plug-In . SVG Version: 6.00 Build 0)  -->
<svg version="1.1" id="Layer_1" xmlns="http://www.w3.org/2000/svg" xmlns:xlink="http://www.w3.org/1999/xlink" x="0px" y="0px"
	 viewBox="0 0 32 32" style="enable-background:new 0 0 32 32;" xml:space="preserve">
<style type="text/css">
	.st0{fill:#FFFFFF;}
</style>
<path class="st0" d="M16,0C7.3,0,0.2,7,0,15.6C0.2,8.1,5.9,2,13,2c7.2,0,13,6.3,13,14c0,1.7,1.3,3,3,3s3-1.3,3-3C32,7.2,24.8,0,16,0
	z M16,32c8.7,0,15.8-7,16-15.6C31.8,23.9,26.1,30,19,30c-7.2,0-13-6.3-13-14c0-1.7-1.3-3-3-3s-3,1.3-3,3C0,24.8,7.2,32,16,32z"/>
</svg>
